<?xml version="1.0" encoding="utf-8"?>
<!-- Generator: Adobe Illustrator 24.2.3, SVG Export Plug-In . SVG Version: 6.00 Build 0)  -->
<svg version="1.1" id="Ebene_1" xmlns="http://www.w3.org/2000/svg" xmlns:xlink="http://www.w3.org/1999/xlink" x="0px" y="0px"
	 viewBox="0 0 377.8 124.6" style="enable-background:new 0 0 377.8 124.6;" xml:space="preserve">
<style type="text/css">
	.st0{fill:#FFFFFF;}
</style>
<path class="st0" d="M263.3,31.2c-3.9,0-4.5,3.3-4.8,4.8h9.3c0-0.5-0.1-1-0.2-1.5C267.1,32.5,265.3,31.2,263.3,31.2z"/>
<path class="st0" d="M162.9,31.2c-3.8,0-4.5,3.3-4.8,4.8h9.3c-0.1-0.5-0.1-1-0.2-1.5C166.7,32.5,164.9,31.2,162.9,31.2z"/>
<path class="st0" d="M344.3,21.9h-5.7v10.2h5.8c2.3,0,6.7-0.1,6.7-5.1S346.7,21.9,344.3,21.9z"/>
<path class="st0" d="M0,0v69.3h377.8V0H0z M47.6,56.5H35.5v-4.7c-0.3,0.9-0.9,1.7-1.6,2.4c-2.5,2.2-5.7,3.3-9,3.2
	c-5.1-0.1-7.8-2-8.9-3.2c-3.1-3-3.2-7.2-3.2-10.2V24.4h12.8v17.5c0,1.9,0.1,5.2,4.6,5.2s4.6-3.5,4.7-5.7v-17h12.8V56.5z M109.5,56.5
	H96.8V39.7c0-2-0.1-5.5-4.5-5.5c-4.7,0-4.7,3.8-4.7,5.2v17.2H74.8V39.2c0-0.6-0.1-1.2-0.2-1.9c-0.5-2-2.3-3.3-4.3-3.2
	c-1.3,0-2.5,0.4-3.5,1.3c-0.9,1-1.3,2.3-1.2,3.6v17.5H52.9V24.5h12.2v4.6c1-1.6,3.2-5.4,10.2-5.4c1.7,0,3.3,0.3,4.9,0.7
	c2.8,0.7,5.1,2.6,6.3,5.3c0.9-2.1,3.8-6,11.2-6c3.3-0.1,6.5,1,8.9,3.2c2.9,2.9,3,6.3,3,9.4L109.5,56.5z M121.3,56.5l-10.7-32.1h13.5
	l2.5,11.9c0.7,3.8,0.8,4.8,1.4,9.6c0.5-4.3,0.7-5.5,1.5-10.2l2.6-11.3h13.4l-10.7,32.1H121.3z M159.5,47.3c1,1,2.4,1.5,3.9,1.5
	c2.9,0,4.5-1.5,5.8-4.2l10.5,4.4c-3.8,5.8-9.4,8.8-17.1,8.8c-11.9,0-17.7-8.6-17.7-17.5c0-10.5,7.3-17.2,17.7-17.2
	c4.8-0.1,9.4,1.6,12.9,4.8c4.7,4.6,4.8,10,4.9,14.9H158C157.9,44.4,158.4,46,159.5,47.3z M206.8,34.5c-0.9-0.1-1.7-0.1-2.6-0.1
	c-7.5,0-7.6,4.9-7.7,7v15.1h-12.7V24.2h12.3v3c3.5-3.1,5.8-3.5,10.7-3.5V34.5z M232.1,56.5l-7-12.2l-3.4,3.2v9H209V12.8h12.8v20.8
	l8.7-9.2h15.6L233.9,36l12.8,20.5H232.1z M259.9,47.3c1,1,2.4,1.5,3.8,1.5c2.9,0,4.5-1.5,5.8-4.2l10.5,4.4c-3.8,5.8-9.4,8.8-17,8.8
	c-11.9,0-17.7-8.6-17.7-17.5c0-10.5,7.3-17.2,17.7-17.2c3.9,0,9,1,12.9,4.8c4.7,4.6,4.8,10,4.9,14.9h-22.5
	C258.2,44.4,258.8,46,259.9,47.3z M319,56.5h-12.7V38.2c-0.1-1.4-0.1-4.6-4.6-4.6c-4.7,0-4.8,3.3-4.8,4.8v18.1h-12.8V12.7h12.7v14.9
	c1.2-1.4,3.7-4.6,10.3-4.6c3.3-0.1,6.5,1,8.9,3.2c2.7,2.8,2.8,6.4,2.9,9.2L319,56.5z M351.2,56.5l-8.5-15.4h-4.1v15.4h-13.9V12.7
	h21.8c4.1,0,8.1,0.3,10.8,1.4c5.8,2.5,7.6,8.4,7.6,12.6c0.1,3.3-1.1,6.4-3.4,8.8c-1.6,1.6-3.5,2.7-5.6,3.3l10.7,17.7H351.2z"/>
<path class="st0" d="M1.4,82.2h37.2v8.5l-21,23h21v10.2H0.1v-8.3l21.4-23.3H1.4V82.2z"/>
<path class="st0" d="M42.2,93.3h12.2v16.6c0,1.8,0.1,5,4.4,5s4.4-3.4,4.4-5.4V93.3h12.2v30.6H63.8v-4.5c-0.3,0.9-0.9,1.6-1.5,2.2
	c-2.4,2.1-5.4,3.1-8.6,3c-4.8-0.1-7.4-1.9-8.4-3c-3-2.9-3-6.8-3.1-9.7L42.2,93.3z"/>
<path class="st0" d="M80.3,82.2h12.2V102l8.3-8.7h14.9l-11.6,11l12.2,19.5h-13.9l-6.7-11.6l-3.2,3.1v8.6H80.3V82.2z"/>
<path class="st0" d="M117.9,93.3h12.2v16.6c0,1.8,0.1,5,4.4,5s4.4-3.4,4.4-5.4V93.3h12.2v30.6h-11.6v-4.5c-0.3,0.9-0.8,1.6-1.5,2.2
	c-2.3,2.1-5.4,3.2-8.6,3c-4.8-0.1-7.4-1.9-8.4-3c-2.9-2.9-3-6.8-3.1-9.7L117.9,93.3z"/>
<path class="st0" d="M167.3,97.3c1-1.4,3.3-4.8,10-4.8c4.8,0,7.3,1.9,8.3,2.8c2.9,2.8,3.1,6.9,3.1,9.2v19.3h-12.1v-16.7
	c0-1.5-0.1-4.6-4.1-4.6c-4.3,0-4.4,3.4-4.4,5v16.3h-12.1V93.3h11.5V97.3z"/>
<path class="st0" d="M195.5,90.9c0.1-2.3,0.2-4.5,2.2-6.6c0.9-1,3.4-2.9,9-2.9c2.1,0,4.3,0.3,6.4,0.8v8.3c-0.7-0.3-1.5-0.4-2.2-0.4
	c-3.3,0-3.3,2.3-3.3,3.8h5.5v6.6h-5.5v23.3h-12.1v-23.2h-4.6V94h4.6V90.9z"/>
<path class="st0" d="M218.7,84.4h12.2l-0.1,9.6h5.2v6.6h-5.3l-0.1,11.7c0,1.2,0.1,3.2,3.3,3.2c0.7,0,1.5-0.1,2.2-0.2v8.3
	c-2.5,0.4-5.1,0.6-7.7,0.7c-1.3,0-5.6-0.1-8-2.5c-2.1-2.1-2.1-4.8-2.1-6.3l0.2-14.8h-4.2V94h4.3L218.7,84.4z"/>
<path class="st0" d="M257.7,82.2h12.1v8.1h-12.1V82.2z M257.7,93.3h12.1v30.6h-12.1V93.3z"/>
<path class="st0" d="M286.2,97.3c1-1.4,3.3-4.8,10-4.8c4.8,0,7.3,1.9,8.3,2.8c2.9,2.8,3.1,6.9,3.1,9.2v19.3h-12.1v-16.7
	c0-1.5-0.1-4.6-4.1-4.6c-4.3,0-4.4,3.4-4.4,5v16.3h-12.2V93.3h11.5L286.2,97.3z"/>
<path class="st0" d="M312.3,82.2h12.2V102l8.3-8.7h14.9l-11.6,11l12.1,19.5h-13.9l-6.7-11.6l-3.2,3.1v8.6h-12.1V82.2z"/>
<path class="st0" d="M350.2,82.2h12.2v41.7h-12.2V82.2z"/>
<path class="st0" d="M377.6,112.7v11.1h-10.7v-11.1H377.6z"/>
</svg>
