<svg xmlns="http://www.w3.org/2000/svg" viewBox="0 0 377.78 124.61"><defs><style>.a{fill:#fff;}</style></defs><path class="a" d="M263.29,31.23c-3.85,0-4.53,3.35-4.84,4.77h9.3a10.51,10.51,0,0,0-.19-1.48A4.27,4.27,0,0,0,263.29,31.23Z"/><path class="a" d="M162.92,31.23c-3.84,0-4.52,3.35-4.83,4.77h9.3a14.6,14.6,0,0,0-.19-1.48A4.28,4.28,0,0,0,162.92,31.23Z"/><path class="a" d="M344.29,21.87h-5.7V32.1h5.77c2.29,0,6.69-.13,6.69-5.09S346.71,21.87,344.29,21.87Z"/><path class="a" d="M0,0V69.31H377.78V0ZM47.64,56.52H35.49V51.81a6.29,6.29,0,0,1-1.61,2.36,12.74,12.74,0,0,1-9,3.16c-5.09-.06-7.75-2-8.87-3.16-3.1-3-3.16-7.19-3.22-10.23V24.41H25.57V41.89c0,1.92.06,5.21,4.59,5.21s4.58-3.53,4.65-5.7v-17H47.64Zm61.89,0H96.75V39.72c0-2-.06-5.51-4.46-5.51-4.65,0-4.71,3.78-4.71,5.2V56.59H74.81V39.23a9,9,0,0,0-.19-1.86,4.1,4.1,0,0,0-4.28-3.16,4.89,4.89,0,0,0-3.47,1.3,4.79,4.79,0,0,0-1.24,3.59V56.59H52.86V24.47H65.07v4.59c1-1.61,3.17-5.39,10.17-5.39a16.63,16.63,0,0,1,4.9.74,9.4,9.4,0,0,1,6.26,5.27c.93-2.11,3.85-6,11.16-6a12.7,12.7,0,0,1,8.93,3.22c2.91,2.85,3,6.32,3,9.36Zm11.74,0L110.55,24.41h13.51l2.54,11.9c.69,3.79.81,4.78,1.37,9.61.49-4.34.68-5.51,1.55-10.16l2.6-11.35h13.39L134.79,56.52Zm38.24-9.23a5.16,5.16,0,0,0,3.85,1.48c2.91,0,4.52-1.54,5.82-4.15L179.72,49c-3.78,5.77-9.36,8.81-17.05,8.81-11.9,0-17.73-8.56-17.73-17.49,0-10.47,7.26-17.23,17.67-17.23a18.37,18.37,0,0,1,12.9,4.77c4.71,4.65,4.77,10,4.9,14.88H158A6.15,6.15,0,0,0,159.51,47.29Zm47.3-12.77c-.87-.07-1.74-.13-2.61-.13-7.5,0-7.62,4.9-7.69,7V56.52H183.8V24.22h12.28v3c3.47-3.1,5.83-3.47,10.73-3.47Zm25.33,22-7-12.21-3.35,3.22v9H209V12.76h12.84V33.59l8.68-9.18h15.62L233.94,36l12.77,20.52Zm27.74-9.23a5.18,5.18,0,0,0,3.84,1.48c2.91,0,4.53-1.54,5.83-4.15L280.09,49c-3.78,5.77-9.36,8.81-17,8.81-11.9,0-17.73-8.56-17.73-17.49,0-10.47,7.25-17.23,17.67-17.23,3.9,0,9,1,12.89,4.77,4.71,4.65,4.78,10,4.9,14.88H258.33A6.09,6.09,0,0,0,259.88,47.29ZM319,56.52H306.3V38.17c-.06-1.42-.12-4.58-4.59-4.58-4.71,0-4.77,3.34-4.77,4.83v18.1H284.17V12.69h12.71V27.63c1.18-1.42,3.66-4.58,10.29-4.58a12.74,12.74,0,0,1,8.93,3.22c2.66,2.79,2.79,6.39,2.91,9.24Zm32.17,0-8.5-15.43h-4.09V56.52H324.7V12.69h21.83c4.15,0,8.12.25,10.78,1.37,5.83,2.48,7.57,8.43,7.57,12.64a12.31,12.31,0,0,1-3.35,8.81,13.86,13.86,0,0,1-5.64,3.35l10.66,17.66Z"/><path class="a" d="M1.36,82.19H38.59v8.49l-21,23h21v10.15H.12V115.5L21.48,92.16H1.36Z"/><path class="a" d="M42.21,93.28H54.37v16.64c0,1.83.06,5,4.37,5s4.36-3.37,4.42-5.43V93.28H75.38v30.57H63.81v-4.49a5.86,5.86,0,0,1-1.53,2.24,12.11,12.11,0,0,1-8.56,3c-4.84-.06-7.38-1.89-8.44-3-3-2.89-3-6.84-3.07-9.73Z"/><path class="a" d="M80.32,82.19H92.54V102l8.26-8.73h14.87l-11.63,11,12.16,19.54H102.33l-6.67-11.63-3.18,3.07v8.56H80.32Z"/><path class="a" d="M117.92,93.28h12.16v16.64c0,1.83.06,5,4.36,5s4.37-3.37,4.43-5.43V93.28h12.21v30.57H139.52v-4.49A5.66,5.66,0,0,1,138,121.6a12,12,0,0,1-8.55,3c-4.84-.06-7.38-1.89-8.44-3-3-2.89-3-6.84-3.07-9.73Z"/><path class="a" d="M167.27,97.35c1-1.41,3.31-4.84,10-4.84,4.84,0,7.26,1.89,8.26,2.84,2.89,2.83,3.07,6.9,3.07,9.2v19.3H176.48v-16.7c0-1.54-.06-4.61-4.13-4.61-4.31,0-4.43,3.37-4.43,5v16.29H155.77V93.28h11.5Z"/><path class="a" d="M195.47,90.92c.11-2.3.17-4.54,2.24-6.55.94-1,3.36-2.89,9-2.89a29.05,29.05,0,0,1,6.37.77v8.32a5.54,5.54,0,0,0-2.24-.42c-3.31,0-3.25,2.25-3.25,3.84h5.49v6.61h-5.49v23.25H195.47V100.6h-4.55V94h4.55Z"/><path class="a" d="M218.69,84.37H230.9L230.79,94H236v6.61h-5.31l-.12,11.74c0,1.18.06,3.18,3.3,3.18a13.33,13.33,0,0,0,2.19-.23v8.32a59.82,59.82,0,0,1-7.68.65c-1.29,0-5.6-.06-8-2.54-2.07-2.06-2.07-4.78-2.07-6.31l.18-14.81H214.3V94h4.25Z"/><path class="a" d="M257.69,82.19h12.15v8.08H257.69Zm0,11.09h12.15v30.57H257.69Z"/><path class="a" d="M286.21,97.35c1-1.41,3.3-4.84,10-4.84,4.84,0,7.26,1.89,8.26,2.84,2.89,2.83,3.07,6.9,3.07,9.2v19.3H295.41v-16.7c0-1.54-.06-4.61-4.13-4.61-4.31,0-4.42,3.37-4.42,5v16.29H274.7V93.28h11.51Z"/><path class="a" d="M312.28,82.19h12.21V102l8.26-8.73h14.87l-11.62,11,12.15,19.54H334.29l-6.67-11.63-3.19,3.07v8.56H312.28Z"/><path class="a" d="M350.19,82.19h12.22v41.66H350.19Z"/><path class="a" d="M377.65,112.75v11.1H366.91v-11.1Z"/></svg>