<svg xmlns="http://www.w3.org/2000/svg" viewBox="0 0 500 187"><defs><style>.a{fill:none;}.b{fill:#fff;}</style></defs><path class="a" d="M0,187V0H500V187ZM10.17,99c17.91.77,476.94.41,481.66-.38V11.14H10.17ZM59,116.17H12.16v12.76c4.22,0,8.2-.07,12.17,0s7.8-.46,12.16.5L10,158.44c0,3.57-.08,7,0,10.35H58.85V156H32.69L59,127.14ZM143,144.28l14.39-14.11H138.31l-10.4,10.66V116c-5.43,0-10.51-.15-15.63.09v52.79H128V158.06c.66-.53,1.3-1.06,2-1.56s1.48-1.1,2.28-1.69l8.21,14.07h17.77C153,160.37,147.92,152.2,143,144.28ZM453.47,130.2h-19L429.55,135a74.17,74.17,0,0,1-5.59,5.41V116.13h-15.5c-.78,7.44-.56,49.31.29,53,5-.34,10.14.37,15.31-.44v-10.4l4.05-3.6c2.95,5,5.67,9.69,8.42,14.39,5.84-.1,11.57.1,17.51-.13-5-8.87-10.58-16.73-15-24.93Zm-293.38-.07c0,8.35-.23,16.18.1,24,.16,3.67.36,7.57,3,10.69,4.53,5.32,10.33,6.09,16.69,4.7,3.16-.69,6-2,7.94-5.79.11,2.19.18,3.63.26,5.08h14.68V130.18H187.09v24.36L184.93,157H178.5L176,154.26c0-7.74,0-15.56,0-23.39a.8.8,0,0,0-.19-.42,2.4,2.4,0,0,0-.31-.32Zm242,38.73c0-9.72,0-19,0-28.34a9.78,9.78,0,0,0-3-7.09,14.42,14.42,0,0,0-10.09-4.5,17.44,17.44,0,0,0-13.1,4.65c-.13.11-.45,0-.67,0-.12-1.2-.23-2.3-.34-3.36H360.3v38.59H376v-2.63c0-6.16-.06-12.32,0-18.47.06-4,2.05-5.85,5.77-5.72,3.37.11,5,1.94,5.11,5.86,0,1.33,0,2.66,0,4v17ZM209.15,130.15v38.7h14.94v-3.56c0-5.33.06-10.66,0-16-.05-3.05.87-5.51,3.51-7.14,2.91-.32,5.79-.67,7.56,3.28v23.39H251c0-7.83.08-15.46,0-23.09a26.93,26.93,0,0,0-1-7.77,12.76,12.76,0,0,0-3.56-5.78c-5.45-4.52-15.35-4.62-20.53.39-.57.54-1.2,1-2.19,1.85-.22-1.1-.36-1.67-.43-2.26s-.08-1.24-.12-2ZM106,130c-5,0-10-.1-15.11.06,0,6.33.21,12.16-.08,18-.16,3.28.13,7-3.73,9.13l-5.62-.26a17.12,17.12,0,0,1-2.31-8.67c0-5.95,0-11.9,0-18.25-5.23.1-10.12-.22-15.13.23,0,9.44-.09,18.57,0,27.7A11.68,11.68,0,0,0,72.36,169c6.76,2.18,13,1.35,18.4-4l.61,4c5,0,9.76.06,14.6-.06Zm169,38.93c0-5.29-.07-10.11,0-14.93s-.36-9.88.27-14.76l6.47-.33v-8.07h-6.43c-.88-2.65.77-3.62,2.24-4.69l4.34-.28v-9.59a21.24,21.24,0,0,0-14.39-.49c-5.86,1.74-8.09,4.65-8.44,10.62-.09,1.44,0,2.89,0,4.61H254c0,2.87-.38,5.43.25,7.92l4.78.4c.26,10-.1,19.76.2,29.59Zm35.92-10.59-5.52-.53a16.36,16.36,0,0,1-1.28-3.46c-.53-3.69.05-12.43.89-15l6-.45a34.22,34.22,0,0,0-.19-7.85l-5.94-.27V119.11H288.92v11.7l-5.63.28v7.64l5.61,1V161c0,2.47.79,4.63,2.92,5.94a19.39,19.39,0,0,0,11.77,2.92c2.42-.18,4.8-.81,7.34-1.26Zm146.2-42.25v53c5.12-.4,10,.36,14.78-.42V116.09ZM353.9,168.87V130c-5.09.11-10-.33-14.78.26v38.62ZM478,155.06c.17,4.6-.36,9.24.36,14,4.72-.11,9.13.14,13.39-.15V155.06ZM339.07,125.84h15c-.14-3.44.4-6.67-.34-9.67H339.07Z"/><path class="b" d="M10.17,99V11.14H491.83V98.6C487.11,99.39,28.08,99.75,10.17,99ZM149.9,82.89c0-7.42,0-14.41,0-21.39a51.58,51.58,0,0,0-.72-9.34,11.59,11.59,0,0,0-6.35-8.82c-7-3.66-16.45-2.78-21.13,3.41a11.08,11.08,0,0,1-1.84,1.55c-2.94-5.53-8.06-6.6-13.1-7.1-5.26-.53-9.87,1.55-13.45,6-.27-2-.49-3.57-.67-4.89H78c-1.08,3.42-1.36,32.79-.42,40.69C83,83,88.35,83.12,94,82.94V57.42l2.19-2.35h6.21c3.53,2.31,3.3,5.84,3.45,9,.24,5,0,10,.08,15,0,1.26.14,2.52.23,3.93,2.84,0,5.33,0,7.81,0a60.61,60.61,0,0,0,8-.21V57.33L124.15,55h6.26c1.59,1.14,2.66,2.23,2.73,4.16.11,2.78.58,5.55.73,8.33.13,2.5,0,5,0,7.5s0,5.2,0,7.86Zm274.33-.16h17.93V63.25h5l11,19.67c6.26,0,12.23,0,18.21,0,.13,0,.28-.18.37-.31a1.81,1.81,0,0,0,.16-.51L464,60.53c1.51-.75,2.81-1.43,4.14-2.05a11.56,11.56,0,0,0,6.54-8.28,22.47,22.47,0,0,0-.6-12.24,14.59,14.59,0,0,0-10.81-9.78A41.29,41.29,0,0,0,454,27.13c-8.81-.13-17.63-.06-26.45,0a20.81,20.81,0,0,0-2.73.33C423.82,31.62,423.52,61.66,424.23,82.73ZM373.18,27.2c-.63,8.39-.4,51.73.26,55.54H389V56.36l2.1-2.16c1.1-.12,1.59-.2,2.09-.22,6.52-.19,7.82,1.08,7.84,7.67,0,6,0,12,0,18,0,1.09.19,2.19.29,3.34,2.82,0,5.32,0,7.82,0a57.86,57.86,0,0,0,7.88-.2V71.92c0-5.66.09-11.33-.05-17-.19-7.18-3.32-12-9.36-13.58-6.65-1.7-13.12-1.31-18.7,4.77V27.2Zm-96,0V82.77h15.68V71.68c1.54-1.35,2.48-3.21,4.61-3.73,3,5.09,5.86,10,8.73,15,5.89,0,11.53,0,17.17,0,.13,0,.29-.17.38-.3A2.68,2.68,0,0,0,324,82Q316.28,69.67,308.45,57c5.07-5,9.81-9.65,15-14.73H304.08L292.9,53.35V27.19ZM41.84,42.07c-2.39,0-4.87-.06-7.34,0s-5.25-.4-7.55.31c-.39.62-.72.91-.72,1.18.16,9.76-1,19.55.77,29.26.88,4.86,3.44,8.41,8.29,10.17a20,20,0,0,0,10.26.8c3.35-.58,6.64-1.85,8.57-5.11.09-.15.42-.16.85-.31l.29,4.54c5.4,0,10.48.34,15.6-.2,0-13.46,0-26.6,0-39.73a.82.82,0,0,0-.16-.44,2.68,2.68,0,0,0-.28-.29H54.56c-.15,1.42-.4,2.68-.41,3.93,0,6.33-.1,12.65,0,19,0,2.56-.55,4.57-3.13,5.8H45.51l-2.65-2.8v-8.6c0-3,.15-6,0-9C42.65,47.85,43.7,45,41.84,42.07ZM240,65.14a49.4,49.4,0,0,0,0-5,31.9,31.9,0,0,0-.9-4.3A18.72,18.72,0,0,0,226.76,42.1c-5.29-2-10.88-1.73-16.18-.69a17.51,17.51,0,0,0-10.91,7,22.82,22.82,0,0,0-3.5,21.5c2,6.18,5.89,11,12.4,13.11A27.56,27.56,0,0,0,223,84.19c6.91-1.35,12-4.82,16.27-10.58l-13.45-5.54L222.06,73H215l-3.08-3.48c.08-1.45.16-2.86.25-4.39Zm100.11-.09h27a.85.85,0,0,0,.44-.14,3.82,3.82,0,0,0,.48-.56c0-.8,0-1.79,0-2.77-.34-10.19-5.59-17.66-15.15-19.93a33.77,33.77,0,0,0-13.8-.3,18.15,18.15,0,0,0-11.36,7.18A22.85,22.85,0,0,0,324.21,70a19.54,19.54,0,0,0,12.45,13.09,27.18,27.18,0,0,0,16.88.61,22.65,22.65,0,0,0,13.65-10.2l-13.43-5.46L350.08,73H343l-2.94-3.06ZM151.2,42.17c4.61,13.78,9.1,27.23,13.6,40.68h17c4.56-13.4,9.1-26.77,13.49-40.57h-16.7c-1.74,8.58-4.36,16.83-5.05,25.53-2.24-8.49-2.88-17.31-5.77-25.64Zm122.58-1.06c-4.89.33-9.36.85-13.2,4.3l-1.1-3.5c-5,.37-9.75-.32-14.31.39V82.75H260.9V60.33c2.94-5.94,8-5.47,12.88-5.4Z"/><path class="b" d="M59,116.17v11L32.69,156H58.85v12.82H10.06c-.1-3.35-.05-6.78,0-10.35l26.45-29c-4.36-1-8.28-.41-12.16-.5s-7.95,0-12.17,0V116.17Z"/><path class="b" d="M143,144.28c4.89,7.92,9.92,16.09,15.18,24.6H140.44l-8.21-14.07c-.8.59-1.55,1.13-2.28,1.69s-1.31,1-2,1.56v10.78h-15.7V116.05c5.12-.24,10.2-.09,15.63-.09v24.87l10.4-10.66h19.11Z"/><path class="b" d="M453.47,130.2,439,144c4.43,8.2,10.06,16.06,15,24.93-5.94.23-11.67,0-17.51.13-2.75-4.7-5.47-9.36-8.42-14.39l-4.05,3.6v10.4c-5.17.81-10.28.1-15.31.44-.85-3.67-1.07-45.54-.29-53H424v24.29a74.17,74.17,0,0,0,5.59-5.41l4.94-4.81Z"/><path class="b" d="M160.09,130.13h15.37a2.4,2.4,0,0,1,.31.32.8.8,0,0,1,.19.42c0,7.83,0,15.65,0,23.39L178.5,157h6.43l2.16-2.45V130.18h15.69v38.63H188.1c-.08-1.45-.15-2.89-.26-5.08-1.92,3.75-4.78,5.1-7.94,5.79-6.36,1.39-12.16.62-16.69-4.7-2.66-3.12-2.86-7-3-10.69C159.86,146.31,160.09,138.48,160.09,130.13Z"/><path class="b" d="M402.07,168.86H387v-17c0-1.33,0-2.66,0-4-.13-3.92-1.74-5.75-5.11-5.86-3.72-.13-5.71,1.72-5.77,5.72-.1,6.15,0,12.31,0,18.47v2.63H360.3V130.23h14.59c.11,1.06.22,2.16.34,3.36.22,0,.54.1.67,0a17.44,17.44,0,0,1,13.1-4.65,14.42,14.42,0,0,1,10.09,4.5,9.78,9.78,0,0,1,3,7.09C402.05,149.83,402.07,159.14,402.07,168.86Z"/><path class="b" d="M209.15,130.15H223c0,.78,0,1.41.12,2s.21,1.16.43,2.26c1-.83,1.62-1.31,2.19-1.85,5.18-5,15.08-4.91,20.53-.39a12.76,12.76,0,0,1,3.56,5.78,26.93,26.93,0,0,1,1,7.77c.13,7.63,0,15.26,0,23.09H235.13V145.44c-1.77-3.95-4.65-3.6-7.56-3.28-2.64,1.63-3.56,4.09-3.51,7.14.09,5.33,0,10.66,0,16v3.56H209.15Z"/><path class="b" d="M106,130v39c-4.84.12-9.59,0-14.6.06l-.61-4c-5.43,5.33-11.64,6.16-18.4,4A11.68,11.68,0,0,1,64,157.9c-.13-9.13,0-18.26,0-27.7,5-.45,9.9-.13,15.13-.23,0,6.35,0,12.3,0,18.25a17.12,17.12,0,0,0,2.31,8.67l5.62.26c3.86-2.09,3.57-5.85,3.73-9.13.29-5.8.08-11.63.08-18C96,129.9,101,130,106,130Z"/><path class="b" d="M275,168.93H259.18c-.3-9.83.06-19.6-.2-29.59l-4.78-.4c-.63-2.49-.29-5.05-.25-7.92h5.12c0-1.72-.07-3.17,0-4.61.35-6,2.58-8.88,8.44-10.62a21.24,21.24,0,0,1,14.39.49v9.59l-4.34.28c-1.47,1.07-3.12,2-2.24,4.69h6.43v8.07l-6.47.33c-.63,4.88-.19,9.83-.27,14.76S275,163.64,275,168.93Z"/><path class="b" d="M310.93,158.34v10.25c-2.54.45-4.92,1.08-7.34,1.26a19.39,19.39,0,0,1-11.77-2.92c-2.13-1.31-2.92-3.47-2.92-5.94V139.75l-5.61-1v-7.64l5.63-.28v-11.7h15.92v11.68l5.94.27a34.22,34.22,0,0,1,.19,7.85l-6,.45c-.84,2.56-1.42,11.3-.89,15a16.36,16.36,0,0,0,1.28,3.46Z"/><path class="b" d="M457.13,116.09h14.78v52.63c-4.75.78-9.66,0-14.78.42Z"/><path class="b" d="M353.9,168.87H339.12V130.25c4.8-.59,9.69-.15,14.78-.26Z"/><path class="b" d="M478,155.06h13.75v13.85c-4.26.29-8.67,0-13.39.15C477.64,164.3,478.17,159.66,478,155.06Z"/><path class="b" d="M339.07,125.84v-9.67h14.68c.74,3,.2,6.23.34,9.67Z"/><path class="a" d="M149.9,82.89H134c0-2.66,0-5.26,0-7.86s.1-5,0-7.5c-.15-2.78-.62-5.55-.73-8.33-.07-1.93-1.14-3-2.73-4.16h-6.26L122,57.33V82.8a60.61,60.61,0,0,1-8,.21c-2.48,0-5,0-7.81,0-.09-1.41-.23-2.67-.23-3.93,0-5,.16-10-.08-15-.15-3.19.08-6.72-3.45-9H96.17L94,57.42V82.94c-5.63.18-11,0-16.4.09-.94-7.9-.66-37.27.42-40.69H92.63c.18,1.32.4,2.89.67,4.89,3.58-4.48,8.19-6.56,13.45-6,5,.5,10.16,1.57,13.1,7.1a11.08,11.08,0,0,0,1.84-1.55c4.68-6.19,14.11-7.07,21.13-3.41a11.59,11.59,0,0,1,6.35,8.82,51.58,51.58,0,0,1,.72,9.34C149.91,68.48,149.9,75.47,149.9,82.89Z"/><path class="a" d="M424.23,82.73c-.71-21.07-.41-51.11.6-55.3a20.81,20.81,0,0,1,2.73-.33c8.82,0,17.64-.1,26.45,0a41.29,41.29,0,0,1,9.29,1.05A14.59,14.59,0,0,1,474.11,38a22.47,22.47,0,0,1,.6,12.24,11.56,11.56,0,0,1-6.54,8.28c-1.33.62-2.63,1.3-4.14,2.05l12.88,21.55a1.81,1.81,0,0,1-.16.51c-.09.13-.24.31-.37.31-6,0-11.95,0-18.21,0l-11-19.67h-5V82.73ZM442.2,39V52h7.12c.83,0,1.66,0,2.48,0,4.08-.34,6.33-2.81,6.2-6.77-.12-3.69-2.33-6-6.24-6.2C448.65,38.85,445.53,39,442.2,39Z"/><path class="a" d="M373.18,27.2h15.69V46.12c5.58-6.08,12.05-6.47,18.7-4.77,6,1.55,9.17,6.4,9.36,13.58.14,5.66,0,11.33.05,17V82.78a57.86,57.86,0,0,1-7.88.2c-2.5,0-5,0-7.82,0-.1-1.15-.28-2.25-.29-3.34,0-6,0-12,0-18,0-6.59-1.32-7.86-7.84-7.67-.5,0-1,.1-2.09.22L389,56.36V82.74H373.44C372.78,78.93,372.55,35.59,373.18,27.2Z"/><path class="a" d="M277.19,27.19H292.9V53.35l11.18-11.1h19.36c-5.18,5.08-9.92,9.75-15,14.73Q316.31,69.69,324,82a2.68,2.68,0,0,1-.19.56c-.09.13-.25.3-.38.3-5.64,0-11.28,0-17.17,0-2.87-4.92-5.75-9.88-8.73-15-2.13.52-3.07,2.38-4.61,3.73V82.77H277.19Z"/><path class="a" d="M41.84,42.07c1.86,2.89.81,5.78,1,8.51.19,3,0,6,0,9v8.6L45.51,71H51c2.58-1.23,3.17-3.24,3.13-5.8-.1-6.32,0-12.64,0-19,0-1.25.26-2.51.41-3.93H70.41a2.68,2.68,0,0,1,.28.29.82.82,0,0,1,.16.44c0,13.13,0,26.27,0,39.73-5.12.54-10.2.18-15.6.2L55,78.39c-.43.15-.76.16-.85.31-1.93,3.26-5.22,4.53-8.57,5.11A20,20,0,0,1,35.29,83C30.44,81.25,27.88,77.7,27,72.84c-1.76-9.71-.61-19.5-.77-29.26,0-.27.33-.56.72-1.18,2.3-.71,5-.23,7.55-.31S39.45,42.07,41.84,42.07Z"/><path class="a" d="M240,65.14H212.16c-.09,1.53-.17,2.94-.25,4.39L215,73h7.07l3.76-4.94,13.45,5.54C235,79.37,229.91,82.84,223,84.19a27.56,27.56,0,0,1-14.43-1.14c-6.51-2.16-10.45-6.93-12.4-13.11a22.82,22.82,0,0,1,3.5-21.5,17.51,17.51,0,0,1,10.91-7c5.3-1,10.89-1.26,16.18.69A18.72,18.72,0,0,1,239,55.89a31.9,31.9,0,0,1,.9,4.3A49.4,49.4,0,0,1,240,65.14Zm-20-14.08h-4.3c-3.14,2.82-3.14,2.82-3.39,6,2,0,3.92.06,5.87,0s3.82.37,5.6-.35C223,54.38,222.67,52.15,219.91,51.06Z"/><path class="a" d="M340.06,65.05v4.88L343,73h7.08l3.68-4.92,13.43,5.46a22.65,22.65,0,0,1-13.65,10.2,27.18,27.18,0,0,1-16.88-.61A19.54,19.54,0,0,1,324.21,70a22.85,22.85,0,0,1,3.45-21.51A18.15,18.15,0,0,1,339,41.34a33.77,33.77,0,0,1,13.8.3c9.56,2.27,14.81,9.74,15.15,19.93,0,1,0,2,0,2.77a3.82,3.82,0,0,1-.48.56.85.85,0,0,1-.44.14Zm3.38-14c-1.56,1.64-3.84,2.75-3.29,6,4-.16,7.86.4,12.3-.51l-3.58-5.46Z"/><path class="a" d="M151.2,42.17h16.6c2.89,8.33,3.53,17.15,5.77,25.64.69-8.7,3.31-17,5.05-25.53h16.7c-4.39,13.8-8.93,27.17-13.49,40.57h-17C160.3,69.4,155.81,56,151.2,42.17Z"/><path class="a" d="M273.78,41.11V54.93c-4.88-.07-9.94-.54-12.88,5.4V82.75H245.17V42.3c4.56-.71,9.35,0,14.31-.39l1.1,3.5C264.42,42,268.89,41.44,273.78,41.11Z"/><path class="b" d="M442.2,39c3.33,0,6.45-.13,9.56,0,3.91.19,6.12,2.51,6.24,6.2.13,4-2.12,6.43-6.2,6.77-.82.07-1.65,0-2.48,0H442.2Z"/><path class="b" d="M219.91,51.06c2.76,1.09,3.1,3.32,3.78,5.6-1.78.72-3.72.27-5.6.35s-3.9,0-5.87,0c.25-3.14.25-3.14,3.39-6Z"/><path class="b" d="M343.44,51.05h5.43l3.58,5.46c-4.44.91-8.31.35-12.3.51C339.6,53.8,341.88,52.69,343.44,51.05Z"/></svg>